<svg width="456" height="60" viewBox="0 0 456 60" fill="none" xmlns="http://www.w3.org/2000/svg">
    <g clip-path="url(#r5352ckuva)">
        <path d="M80.936 21.401V57.9H67.868V24.064c0-10.173-4.87-12.549-10.38-12.549-5.084 0-10.477 2.682-10.477 12.128V57.9H33.944V23.854c0-9.56-4.562-12.339-10.38-12.339-6.128 0-10.477 3.813-10.477 11.63V57.9H0V1.226h12.352V8.43h.213C15.368 3.296 20.857 0 28.222 0s13.183 3.487 15.252 8.641c4.059-5.652 9.143-8.64 17.745-8.64 10.593 0 19.717 7.203 19.717 21.4zM136.336 52.67c-5.49 3.697-12.758 6.073-23.447 6.073-13.184 0-26.154-6.17-26.154-26.44V26.44C86.735 8.028 98.255 0 112.773 0c14.517 0 25.013 8.334 25.013 24.888v9.37H99.493c0 9.042 4.987 13.68 14.111 13.68 6.746 0 11.617-1.342 17.32-4.638l5.393 9.37h.019zm-11.095-28.184v-2.472c0-6.073-3.538-11.323-12.662-11.323s-13.067 5.25-13.067 11.63v2.165h25.729zM193.302 20.98V57.9h-13.067V23.758c0-8.43-3.537-12.454-10.902-12.454-4.253 0-12.352 1.859-12.352 13.067V57.9h-13.067V1.226h12.352v6.476h.212c4.04-5.652 10.168-7.721 16.914-7.721 10.264 0 19.93 5.748 19.93 20.98l-.02.019zM201.595 37.84V1.226h13.067v33.855c0 9.867 4.678 12.454 10.786 12.454 5.181 0 12.14-3.085 12.14-13.278V1.227h13.067V57.9h-12.449v-6.782h-.212c-3.209 5.345-10.381 7.72-16.605 7.72-11.927 0-19.813-7.203-19.813-20.979l.019-.019z" fill="#fff"/>
        <path d="M340.947 21.401V57.9h-13.068V24.064c0-10.173-4.871-12.55-10.38-12.55-5.084 0-10.477 2.683-10.477 12.129V57.9h-13.067V23.854c0-9.56-4.562-12.34-10.381-12.34-6.127 0-10.477 3.814-10.477 11.63V57.9H260.03V1.226h12.352V8.43h.213C275.398 3.296 280.907 0 288.272 0c7.364 0 13.183 3.487 15.251 8.641 4.04-5.652 9.124-8.64 17.745-8.64 10.593 0 19.717 7.203 19.717 21.4h-.038zM456 20.98V57.9h-13.067V23.758c0-8.43-3.538-12.454-10.902-12.454-4.253 0-12.352 1.859-12.352 13.067V57.9h-13.068V1.226h12.352v6.476h.213c4.04-5.652 10.168-7.721 16.914-7.721 10.264 0 19.929 5.748 19.929 20.98l-.019.019z" fill="#FFC41D"/>
        <path fill-rule="evenodd" clip-rule="evenodd" d="M346.746 26.019C346.746 9.349 357.339 0 373.518 0S400.29 9.35 400.29 26.02v6.686c0 16.554-10.593 26.019-26.772 26.019s-26.772-9.465-26.772-26.019V26.02zm14.207.766c0-10.212 4.91-15.73 12.565-15.73 7.655 0 12.565 5.518 12.565 15.73v5.154c0 10.212-4.91 15.73-12.565 15.73-7.655 0-12.565-5.518-12.565-15.73v-5.154z" fill="#FFC41D"/>
        <path d="M373.441 20.98c-3.383 0-5.568 2.337-5.741 6.667l4.871 1.782-4.871 1.667c.173 4.31 2.377 6.63 5.741 6.63 3.363 0 5.76-2.53 5.76-7.205v-2.357c0-4.674-2.242-7.203-5.76-7.203v.019zM226.144 20.98c3.383 0 5.567 2.337 5.741 6.667l-4.871 1.782 4.871 1.667c-.174 4.31-2.377 6.63-5.741 6.63-3.363 0-5.76-2.53-5.76-7.205v-2.357c0-4.674 2.242-7.203 5.76-7.203v.019z" fill="#fff"/>
    </g>
    <defs>
        <clipPath id="r5352ckuva">
            <path fill="#fff" d="M0 0h456v60H0z"/>
        </clipPath>
    </defs>
</svg>
