<svg width="137" height="19" viewBox="0 0 137 19" fill="none" xmlns="http://www.w3.org/2000/svg">
<g clip-path="url(#clip0_3_301)">
<mask id="mask0_3_301" style="mask-type:luminance" maskUnits="userSpaceOnUse" x="0" y="0" width="137" height="19">
<path d="M0 0.693726H136.571V18.6637H0V0.693726Z" fill="white"/>
</mask>
<g mask="url(#mask0_3_301)">
<path d="M24.2402 7.10319V18.0346H20.3264V7.90076C20.3264 4.85396 18.8678 4.14235 17.2176 4.14235C15.6949 4.14235 14.0797 4.9456 14.0797 7.77467V18.0346H10.1662V7.83786C10.1662 4.97465 8.79988 4.14235 7.05739 4.14235C5.22206 4.14235 3.91954 5.28434 3.91954 7.62552V18.0346H0V1.0608H3.69941V3.21839H3.7632C4.6027 1.68077 6.24665 0.693618 8.45246 0.693618C10.6583 0.693618 12.4008 1.73797 13.0204 3.28159C14.2361 1.58882 15.7587 0.693917 18.335 0.693917C21.5076 0.693917 24.2402 2.85121 24.2402 7.10319ZM40.8325 16.4682C39.1882 17.5755 37.0115 18.2871 33.8101 18.2871C29.8615 18.2871 25.977 16.4392 25.977 10.3683V8.61237C25.977 3.09799 29.4273 0.693618 33.7754 0.693618C38.1232 0.693618 41.2667 3.18964 41.2667 8.14755V10.9539H29.798C29.798 13.6619 31.2916 15.051 34.0243 15.051C36.0447 15.051 37.5035 14.6491 39.2116 13.6619L40.8268 16.4682H40.8325ZM37.5095 8.02715V7.28679C37.5095 5.46793 36.4499 3.89556 33.7173 3.89556C30.9847 3.89556 29.8037 5.46793 29.8037 7.37873V8.02715H37.5095ZM57.8937 6.9771V18.0346H53.9802V7.80911C53.9802 5.28434 52.9208 4.07915 50.715 4.07915C49.4413 4.07915 47.0156 4.63592 47.0156 7.9927V18.0346H43.1021V1.0608H46.8015V3.00036H46.865C48.075 1.30759 49.9103 0.687927 51.9307 0.687927C55.0048 0.687927 57.8997 2.40945 57.8997 6.97141L57.8937 6.9771ZM60.3775 12.0267V1.0608H64.291V11.2003C64.291 14.1555 65.6921 14.9303 67.5214 14.9303C69.0731 14.9303 71.1573 14.0063 71.1573 10.9536V1.0611H75.0709V18.0346H71.3424V16.0034H71.2789C70.3178 17.6042 68.1698 18.3155 66.3058 18.3155C62.7336 18.3155 60.3718 16.1582 60.3718 12.0323L60.3775 12.0267Z" fill="white"/>
<path d="M102.113 7.10331V18.0347H98.1994V7.90088C98.1994 4.85408 96.7405 4.14217 95.0906 4.14217C93.5679 4.14217 91.9527 4.94572 91.9527 7.77479V18.0347H88.0392V7.83799C88.0392 4.97478 86.6729 4.14217 84.9301 4.14217C83.0951 4.14217 81.7922 5.28446 81.7922 7.62534V18.0347H77.8787V1.06093H81.5781V3.21852H81.6419C82.4814 1.68089 84.1313 0.69374 86.3371 0.69374C88.5427 0.69374 90.2854 1.73809 90.9048 3.28171C92.1148 1.58894 93.6374 0.694039 96.2194 0.694039C99.392 0.694039 102.125 2.85133 102.125 7.10331H102.113ZM136.571 6.97723V18.0347H132.658V7.80923C132.658 5.28446 131.598 4.07928 129.393 4.07928C128.119 4.07928 125.693 4.63604 125.693 7.99283V18.0347H121.78V1.06093H125.479V3.00048H125.543C126.753 1.30771 128.588 0.688049 130.608 0.688049C133.683 0.688049 136.577 2.40957 136.577 6.97154L136.571 6.97723Z" fill="#FFC41D"/>
<path fill-rule="evenodd" clip-rule="evenodd" d="M103.85 8.48639C103.85 3.49374 107.023 0.693726 111.868 0.693726C116.714 0.693726 119.886 3.49404 119.886 8.48669V10.4891C119.886 15.447 116.714 18.2818 111.868 18.2818C107.023 18.2818 103.85 15.447 103.85 10.4891V8.48669V8.48639ZM108.105 8.7158C108.105 5.65732 109.576 4.00469 111.868 4.00469C114.161 4.00469 115.631 5.65732 115.631 8.7158V10.2594C115.631 13.3179 114.161 14.9705 111.868 14.9705C109.576 14.9705 108.105 13.3179 108.105 10.2594V8.7158Z" fill="#FFC41D"/>
<path d="M111.845 6.97725C110.832 6.97725 110.178 7.67718 110.126 8.97401L111.585 9.50771L110.126 10.007C110.178 11.2978 110.838 11.9927 111.845 11.9927C112.852 11.9927 113.57 11.2349 113.57 9.83477V9.12885C113.57 7.72899 112.899 6.97156 111.845 6.97156V6.97725ZM67.7299 6.97725C68.7431 6.97725 69.3972 7.67718 69.4493 8.97401L67.9904 9.50771L69.4493 10.007C69.3972 11.2978 68.7374 11.9927 67.7299 11.9927C66.7227 11.9927 66.0048 11.2349 66.0048 9.83477V9.12885C66.0048 7.72899 66.6762 6.97156 67.7299 6.97156V6.97725Z" fill="white"/>
</g>
</g>
<defs>
<clipPath id="clip0_3_301">
<rect width="136.571" height="17.9699" fill="white" transform="translate(0 0.693726)"/>
</clipPath>
</defs>
</svg>
