<svg width="244" height="32" viewBox="0 0 244 32" fill="none" xmlns="http://www.w3.org/2000/svg">
<g id="menumon_logo 1" clip-path="url(#clip0_484_3313)">
<g id="Clip path group">
<mask id="mask0_484_3313" style="mask-type:luminance" maskUnits="userSpaceOnUse" x="-1" y="-1" width="245" height="33">
<g id="r5352ckuva">
<path id="Vector" d="M-0.000976562 -0.00195312H243.199V31.998H-0.000976562V-0.00195312Z" fill="white"/>
</g>
</mask>
<g mask="url(#mask0_484_3313)">
<g id="Group">
<path id="Vector_2" d="M43.1649 11.4123V30.8784H36.1953V12.8325C36.1953 7.40695 33.5979 6.13975 30.6593 6.13975C27.9478 6.13975 25.0716 7.57015 25.0716 12.608V30.8784H18.1025V12.7205C18.1025 7.62188 15.6694 6.13975 12.5665 6.13975C9.29822 6.13975 6.97876 8.17335 6.97876 12.3424V30.8784H-0.000976562V0.652281H6.58676V4.49441H6.70036C8.19529 1.75628 11.1228 -0.00158542 15.0508 -0.00158542C18.9788 -0.00158542 22.0817 1.85815 23.1852 4.60695C25.35 1.59255 28.0614 -0.00105208 32.6492 -0.00105208C38.2988 -0.00105208 43.1649 3.84055 43.1649 11.4123ZM72.7115 28.0891C69.7835 30.0608 65.9073 31.328 60.2065 31.328C53.175 31.328 46.2577 28.0374 46.2577 17.2267V14.0997C46.2577 4.28001 52.4017 -0.00158542 60.1446 -0.00158542C67.887 -0.00158542 73.4849 4.44321 73.4849 13.272V18.2693H53.0619C53.0619 23.0917 55.7217 25.5653 60.5878 25.5653C64.1857 25.5653 66.7835 24.8496 69.8251 23.0917L72.7014 28.0891H72.7115ZM66.7942 13.0576V11.7392C66.7942 8.50028 64.9073 5.70028 60.0411 5.70028C55.175 5.70028 53.0721 8.50028 53.0721 11.9029V13.0576H66.7942ZM103.093 11.1877V30.8784H96.1243V12.6693C96.1243 8.17335 94.2379 6.02722 90.3099 6.02722C88.0417 6.02722 83.7222 7.01868 83.7222 12.9963V30.8784H76.7531V0.652281H83.3409V4.10615H83.4539C85.6086 1.09175 88.8769 -0.0117188 92.4747 -0.0117188C97.9489 -0.0117188 103.104 3.05388 103.104 11.1776L103.093 11.1877ZM107.516 20.1798V0.652281H114.485V18.7083C114.485 23.9707 116.98 25.3504 120.238 25.3504C123.001 25.3504 126.713 23.7051 126.713 18.2688V0.652815H133.682V30.8784H127.042V27.2614H126.929C125.218 30.112 121.393 31.3787 118.073 31.3787C111.712 31.3787 107.506 27.5371 107.506 20.1899L107.516 20.1798Z" fill="white"/>
<path id="Vector_3" d="M181.837 11.4123V30.8784H174.868V12.8325C174.868 7.40695 172.27 6.13921 169.332 6.13921C166.62 6.13921 163.744 7.57015 163.744 12.608V30.8784H156.775V12.7205C156.775 7.62188 154.342 6.13921 151.238 6.13921C147.971 6.13921 145.651 8.17335 145.651 12.3419V30.8784H138.682V0.652281H145.269V4.49441H145.383C146.878 1.75628 149.816 -0.00158542 153.744 -0.00158542C157.672 -0.00158542 160.775 1.85815 161.878 4.60695C164.033 1.59255 166.744 -0.00105208 171.342 -0.00105208C176.992 -0.00105208 181.858 3.84055 181.858 11.4123H181.837ZM243.199 11.1877V30.8784H236.23V12.6693C236.23 8.17335 234.343 6.02722 230.416 6.02722C228.147 6.02722 223.828 7.01868 223.828 12.9963V30.8784H216.858V0.652281H223.446V4.10615H223.56C225.714 1.09175 228.982 -0.0117188 232.58 -0.0117188C238.054 -0.0117188 243.209 3.05388 243.209 11.1776L243.199 11.1877Z" fill="#FFC41D"/>
<path id="Vector_4" fill-rule="evenodd" clip-rule="evenodd" d="M184.93 13.8768C184.93 4.98613 190.579 0 199.208 0C207.837 0 213.486 4.98667 213.486 13.8773V17.4432C213.486 26.272 207.837 31.32 199.208 31.32C190.579 31.32 184.93 26.272 184.93 17.4432V13.8773V13.8768ZM192.507 14.2853C192.507 8.83893 195.125 5.896 199.208 5.896C203.291 5.896 205.909 8.83893 205.909 14.2853V17.0341C205.909 22.4805 203.291 25.4235 199.208 25.4235C195.125 25.4235 192.507 22.4805 192.507 17.0341V14.2853Z" fill="#FFC41D"/>
<path id="Vector_5" d="M199.168 11.1879C197.363 11.1879 196.198 12.4343 196.106 14.7436L198.704 15.694L196.106 16.5831C196.198 18.8817 197.373 20.1191 199.168 20.1191C200.961 20.1191 202.24 18.7697 202.24 16.2764V15.0193C202.24 12.5265 201.044 11.1777 199.168 11.1777V11.1879ZM120.609 11.1879C122.413 11.1879 123.578 12.4343 123.671 14.7436L121.073 15.694L123.671 16.5831C123.578 18.8817 122.403 20.1191 120.609 20.1191C118.816 20.1191 117.537 18.7697 117.537 16.2764V15.0193C117.537 12.5265 118.733 11.1777 120.609 11.1777V11.1879Z" fill="white"/>
</g>
</g>
</g>
</g>
<defs>
<clipPath id="clip0_484_3313">
<rect width="243.2" height="32" fill="white"/>
</clipPath>
</defs>
</svg>
