<svg width="24" height="24" viewBox="0 0 24 24" fill="none" xmlns="http://www.w3.org/2000/svg">
<g id="fluent:service-bell-20-regular">
<path id="Vector" d="M12.6004 10.2C13.1068 10.2 13.6084 10.2048 14.122 10.3896C14.6176 10.5672 15.166 10.9308 15.7012 11.7336C15.7449 11.7991 15.8011 11.8554 15.8666 11.8993C15.9321 11.9431 16.0056 11.9736 16.0829 11.989C16.1601 12.0045 16.2397 12.0045 16.317 11.9892C16.3943 11.9739 16.4678 11.9435 16.5334 11.8998C16.5989 11.856 16.6552 11.7998 16.6991 11.7343C16.7429 11.6689 16.7734 11.5954 16.7888 11.5181C16.8043 11.4408 16.8043 11.3613 16.789 11.284C16.7737 11.2067 16.7433 11.1331 16.6996 11.0676C16.0336 10.0692 15.2836 9.53158 14.5276 9.26038C13.8064 8.99998 13.1164 8.99998 12.6244 8.99998H12.6004C12.4413 8.99998 12.2886 9.06319 12.1761 9.17571C12.0636 9.28823 12.0004 9.44085 12.0004 9.59998C12.0004 9.75911 12.0636 9.91172 12.1761 10.0242C12.2886 10.1368 12.4413 10.2 12.6004 10.2ZM9.60039 5.99998V6.94798C6.13119 7.97998 3.60039 11.1948 3.60039 15C3.60039 15.1591 3.6636 15.3117 3.77613 15.4242C3.88865 15.5368 4.04126 15.6 4.20039 15.6H19.8004C19.9595 15.6 20.1121 15.5368 20.2247 15.4242C20.3372 15.3117 20.4004 15.1591 20.4004 15C20.4003 13.1908 19.8163 11.43 18.7353 9.97926C17.6543 8.52855 16.134 7.46544 14.4004 6.94798V5.99998C14.4004 5.36346 14.1475 4.75301 13.6974 4.30292C13.2474 3.85283 12.6369 3.59998 12.0004 3.59998C11.3639 3.59998 10.7534 3.85283 10.3033 4.30292C9.85325 4.75301 9.60039 5.36346 9.60039 5.99998ZM12.0004 4.79998C12.3187 4.79998 12.6239 4.9264 12.8489 5.15145C13.074 5.37649 13.2004 5.68172 13.2004 5.99998V6.68398C12.4044 6.57009 11.5963 6.57009 10.8004 6.68398V5.99998C10.8004 5.68172 10.9268 5.37649 11.1519 5.15145C11.3769 4.9264 11.6821 4.79998 12.0004 4.79998ZM12.0004 7.79998C13.8063 7.79971 15.5463 8.47808 16.8755 9.70057C18.2046 10.9231 19.0259 12.6004 19.1764 14.4H4.82439C4.97488 12.6004 5.79613 10.9231 7.12531 9.70057C8.45448 8.47808 10.1945 7.79971 12.0004 7.79998ZM4.20039 16.8C3.723 16.8 3.26516 16.9896 2.9276 17.3272C2.59003 17.6647 2.40039 18.1226 2.40039 18.6C2.40039 19.0774 2.59003 19.5352 2.9276 19.8728C3.26516 20.2103 3.723 20.4 4.20039 20.4H19.8004C20.2778 20.4 20.7356 20.2103 21.0732 19.8728C21.4107 19.5352 21.6004 19.0774 21.6004 18.6C21.6004 18.1226 21.4107 17.6647 21.0732 17.3272C20.7356 16.9896 20.2778 16.8 19.8004 16.8H4.20039ZM3.60039 18.6C3.60039 18.4408 3.6636 18.2882 3.77613 18.1757C3.88865 18.0632 4.04126 18 4.20039 18H19.8004C19.9595 18 20.1121 18.0632 20.2247 18.1757C20.3372 18.2882 20.4004 18.4408 20.4004 18.6C20.4004 18.7591 20.3372 18.9117 20.2247 19.0242C20.1121 19.1368 19.9595 19.2 19.8004 19.2H4.20039C4.04126 19.2 3.88865 19.1368 3.77613 19.0242C3.6636 18.9117 3.60039 18.7591 3.60039 18.6Z" fill="white"/>
</g>
</svg>
