<svg xmlns="http://www.w3.org/2000/svg" width="256" height="256"><path fill-opacity=".016" d="M0 128.004v128.004l128.25-.254 128.25-.254.254-127.75L257.008 0H0v128.004m.485.496c0 70.4.119 99.053.265 63.672.146-35.38.146-92.98 0-128C.604 29.153.485 58.1.485 128.5" fill="#1976D2" fill-rule="evenodd"/><path fill-opacity=".131" d="M26.345 18.697c.583 3.59 6.012 17.64 7.652 19.803.417.55 1.081 2.051 1.475 3.336.395 1.284 2.058 4.492 3.696 7.128l2.98 4.793-3.504 6.958c-4.921 9.772-6.839 17.981-6.592 28.227.185 7.674-.108 9.233-2.836 15.094-1.673 3.595-3.772 9.22-4.664 12.5-2.13 7.835-3.087 22.933-1.757 27.714l1.044 3.75H11v74H0v19h120.441c66.243 0 120.642-.338 120.887-.75.245-.413.609-4.575.809-9.25l.363-8.5-5.75-.3-5.75-.3V163.651l7.029-7.248c12.133-12.514 18.564-29.366 17.708-46.403-.539-10.73-2.629-17.251-8.233-25.691-4.08-6.146-11.331-13.534-12.545-12.784-.45.279-1.126 2.967-1.502 5.975-.655 5.241-.835 5.511-4.32 6.479-2 .555-4.439 1.012-5.418 1.015-2.827.009-3.253 3.031-1.007 7.132l2.063 3.767-3.637.303c-3.819.319-4.38 1.591-2.807 6.354.607 1.839.329 2.009-2.71 1.654-4.741-.554-5.879-3.547-6.161-16.204-.257-11.583-1.769-17.677-6.946-27.998l-3.261-6.502 2.272-3.566c1.987-3.12 4.813-9.117 11.512-24.434 2.799-6.4 3.243-9.455 1.474-10.134-1.846-.709-14.226 5.403-20.511 10.125a624.975 624.975 0 0 1-8.085 5.967l-3.585 2.586-6.915-4.642c-8.493-5.7-15.33-8.783-25.845-11.656-7.061-1.928-10.571-2.204-28.07-2.209-17.333-.004-21.161.289-28.709 2.201-10.617 2.688-19.873 6.789-27.669 12.257l-5.868 4.117-3.377-2.334a556.067 556.067 0 0 1-8.526-6.077c-6.213-4.517-14.794-9.145-18.737-10.105-2.869-.698-2.883-.679-2.269 3.101M29.228 22c.558 2.2 1.332 4 1.719 4 .388 0 1.728-1.09 2.98-2.422l2.275-2.422-3.051-1.578c-4.569-2.363-5.061-2.06-3.923 2.422m179.022-2.78c-2.829 1.365-2.814 1.902.131 4.668l2.38 2.236 1.12-3.211c1.842-5.287 1.145-5.996-3.631-3.693m-7 3.841c-1.238.481-2.25 1.366-2.25 1.966 0 .6.52.77 1.155.378.685-.424.884-.277.489.362-.675 1.092 4.263 10.143 5.566 10.201.39.018 1.257-1.793 1.925-4.024 1.165-3.887 1.094-4.174-1.71-6.906-2.346-2.287-3.371-2.678-5.175-1.977M34.638 25.856c-2.732 2.852-2.734 2.863-1.078 7.001l1.658 4.145 3.784-6.251c2.599-4.293 3.426-6.481 2.641-6.986-2.162-1.389-4.275-.759-7.005 2.091m159.612 1.828c-1.238.858-2.25 1.931-2.25 2.384 0 .454 2.193 4.247 4.873 8.43l4.872 7.605 1.515-3.799c1.422-3.565 1.384-4.03-.622-7.565-1.176-2.071-3.038-4.857-4.138-6.19-1.871-2.269-2.145-2.324-4.25-.865M40.37 32.636c-3.411 5.332-3.542 5.845-2.439 9.529.642 2.141 1.526 3.671 1.965 3.399 1.306-.807 8.628-13.824 8.329-14.808-.151-.497.187-.62.75-.271 1.74 1.075 1.13-.685-.725-2.093-2.953-2.242-4.141-1.602-7.88 4.244m146.31.578-2.716 1.979 5.567 6.013c3.062 3.308 6.304 7.139 7.205 8.514l1.638 2.5.846-2.286c.663-1.793.045-3.6-2.86-8.361-2.039-3.34-4.439-7.033-5.335-8.205l-1.628-2.133-2.717 1.979M47.246 38.25c-6.299 10.008-6.377 10.218-4.626 12.362 1.418 1.735 1.497 1.742.973.086-.314-.991-.153-1.544.357-1.229.51.315 1.315-.119 1.788-.966.474-.846 3.266-4.012 6.204-7.035 5.205-5.356 5.296-5.547 3.545-7.482C54.499 32.894 53.125 32 52.435 32c-.691 0-3.026 2.813-5.189 6.25m123.579 47.438-3.649 1.456 1.636 2.851c1.538 2.68 1.523 2.977-.243 4.928C167.536 96.066 165.705 97 164.5 97c-2.344 0-5.5-2.832-5.5-4.936 0-.754-.648-1.029-1.582-.671-.87.334-2.22.607-3 .607-2.441 0-1.555 3.063 1.879 6.497 5.66 5.66 14.365 6.666 18.534 2.142 1.646-1.787 1.844-2.879 1.204-6.639-.422-2.475-1.118-5.4-1.548-6.5-.585-1.497-.488-1.731.388-.928.642.589 1.596 3.064 2.119 5.5l.951 4.428-.368-4.182c-.203-2.3-.984-5.06-1.735-6.134-1.272-1.815-1.623-1.85-5.017-.496M65.05 86.907c-1.482 2.769-.593 11.836 1.374 14.009 3.882 4.289 13.512 3.302 18.734-1.92C88.159 95.995 88.972 92 86.582 92c-.78 0-2.13-.273-3-.607-1.102-.423-1.582-.028-1.582 1.3C82 95.341 80.074 97 77 97c-1.43 0-3.14-.54-3.8-1.2-1.647-1.647-1.507-5.35.27-7.128 1.294-1.294 1.144-1.564-1.25-2.255-4.601-1.327-6.259-1.214-7.17.49m.574.632c-.343.893-.595 2.15-.561 2.793.035.642.495.09 1.022-1.227.527-1.318.779-2.574.56-2.793-.219-.219-.679.333-1.021 1.227m70.882 47.211c.397.963.962 2.593 1.257 3.624.456 1.598.714 1.451 1.747-1 1.441-3.417 1.074-4.374-1.676-4.374-1.558 0-1.876.418-1.328 1.75m-64.682 32c22.179.15 58.179.15 80 0 21.822-.151 3.676-.274-40.324-.273-44 0-61.854.123-39.676.273M30.437 194c0 14.575.14 20.537.31 13.25.171-7.287.171-19.213 0-26.5-.17-7.287-.31-1.325-.31 13.25m117.07-19.011c-.35.566.051.734.941.393 1.732-.665 2.049-1.382.611-1.382-.518 0-1.216.445-1.552.989m7.895.757c1.459 1.724 2.215 1.987 3.25 1.128.741-.615 1.348-1.379 1.348-1.696 0-.318-.534-.044-1.186.608-.915.915-1.658.79-3.25-.55-2.059-1.732-2.059-1.73-.162.51m41.908 8.754c.005 3.3.192 4.529.415 2.732.222-1.797.218-4.497-.01-6-.229-1.503-.411-.032-.405 3.268m-120.56-2.838c.688.278 1.813.278 2.5 0 .688-.277.125-.504-1.25-.504s-1.937.227-1.25.504m7.063.021c.721.289 1.584.253 1.916-.079.332-.332-.258-.568-1.312-.525-1.165.048-1.402.285-.604.604m-17.063.979c.688.278 1.813.278 2.5 0 .688-.277.125-.504-1.25-.504s-1.937.227-1.25.504m51.25-.284c0 .207.787.995 1.75 1.75 1.586 1.243 1.621 1.208.378-.378-1.307-1.666-2.128-2.195-2.128-1.372m-68.595 2.872L47.5 187.5l2.25-1.905c2.114-1.79 2.705-2.595 1.905-2.595-.19 0-1.202 1.012-2.25 2.25M98 184.255c0 .275.635 1.027 1.411 1.671 1.087.902 1.583.873 2.16-.127.412-.715.381-.965-.069-.558-.45.408-1.422.24-2.16-.372-.738-.613-1.342-.889-1.342-.614m-52.921 11.328c.048 1.165.285 1.402.604.605.289-.722.253-1.585-.079-1.917-.332-.332-.568.258-.525 1.312M197.336 202c0 4.125.177 5.813.392 3.75.216-2.062.216-5.437 0-7.5-.215-2.062-.392-.375-.392 3.75m-2.464 9.75c-1.243 1.586-1.208 1.621.378.378 1.666-1.307 2.195-2.128 1.372-2.128-.207 0-.995.787-1.75 1.75M63 211.378c0 .207.788.995 1.75 1.75 1.586 1.243 1.621 1.208.378-.378-1.307-1.666-2.128-2.195-2.128-1.372m65.872 1.372c-1.243 1.586-1.208 1.621.378.378 1.666-1.307 2.195-2.128 1.372-2.128-.207 0-.995.787-1.75 1.75m11 0c-1.243 1.586-1.208 1.621.378.378 1.666-1.307 2.195-2.128 1.372-2.128-.207 0-.995.787-1.75 1.75m34.354-.171c.95.991 1.942 1.587 2.205 1.324.263-.263-.514-1.074-1.726-1.803-2.107-1.265-2.128-1.243-.479.479m8.646.171c-1.214 1.548-1.189 1.607.22.509.876-.683 1.96-.908 2.41-.5.45.407.495.179.099-.509-.929-1.616-1.093-1.586-2.729.5m-126.26.069c-.279.451.82.624 2.441.387 1.621-.238 2.947-.607 2.947-.819 0-.762-4.893-.37-5.388.432M96 214c-.901.582-1.025.975-.309.985.655.008 1.469-.435 1.809-.985.767-1.242.421-1.242-1.5 0m-17.736.718c1.52.229 3.77.223 5-.014 1.23-.237-.014-.425-2.764-.418-2.75.008-3.756.202-2.236.432m57.549-.035c.721.289 1.584.253 1.916-.079.332-.332-.258-.568-1.312-.525-1.165.048-1.402.285-.604.604m26.937 1.023c1.238.238 3.262.238 4.5 0 1.238-.239.225-.434-2.25-.434s-3.488.195-2.25.434m-125.5 6.037c4.263.188 11.237.188 15.5 0 4.263-.187.775-.341-7.75-.341s-12.013.154-7.75.341m29.03-.007c2.629.207 6.679.204 9-.005 2.321-.21.17-.379-4.78-.376-4.95.003-6.849.175-4.22.381" fill="#1976D2" fill-rule="evenodd"/><path fill-opacity=".275" d="M103.597 16.139c-14.882 1.909-30.181 7.76-39.96 15.28l-4.862 3.74-2.638-2.437C48.604 25.764 32.153 16 27.962 16c-3.54 0-2.504 3.293 8.493 27a210.053 210.053 0 0 0 3.654 7.381l2.03 3.881-3.094 5.805C34.414 68.755 31.858 79.85 32.149 90c.215 7.522-.063 9.093-2.421 13.654-5.626 10.883-8.793 30.843-6.512 41.049l.715 3.203-6.215.297-6.216.297-.262 36.698-.263 36.698-5.237.302L.5 222.5v18l118.5.274c65.175.151 119.512.03 120.75-.269 2.126-.513 2.25-1.038 2.25-9.524V222h-11v-58.815l6.384-6.384c10.487-10.487 18.638-29.641 18.601-43.711-.033-12.671-5.35-25.952-14.317-35.762-6.161-6.742-7.663-6.855-7.683-.578-.009 2.612-.346 5.228-.75 5.812-.404.584-3.323 1.629-6.485 2.322-3.162.692-5.75 1.695-5.75 2.228 0 .532.9 2.732 2 4.888 2.501 4.903 2.533 4.722-.75 4.298-4.306-.557-5.482.739-4.146 4.569.62 1.78.963 3.384.762 3.566-.201.181-1.813.11-3.581-.16-4.618-.704-7.446-5.678-6.217-10.935 1.816-7.768-2.024-25.469-7.585-34.956l-2.507-4.279 1.918-3.414a424.202 424.202 0 0 0 2.932-5.302C208.849 36.036 215 20.605 215 17.357c0-2.124-.332-2.389-2.25-1.795-6.613 2.047-27.044 14.868-29.167 18.304-.352.569-3.675-1.106-7.708-3.885-18.23-12.558-43.929-17.48-72.278-13.842M28 18.337C28 20.463 30.113 26 30.924 26c1.061 0 5.502-4.907 4.945-5.464-.259-.26-2.136-1.167-4.17-2.017C28.663 17.25 28 17.218 28 18.337m181.046.24c-4.675 2.027-4.662 1.986-1.411 4.802 3.268 2.831 3.789 2.567 5.191-2.629 1.136-4.206 1.036-4.263-3.78-2.173m-100.749.43c-25.89 2.694-47.23 14.416-60.739 33.365C39.228 64.056 36 74.17 36 88.582c0 7.081-.416 9.306-2.514 13.446-5.723 11.293-9.216 34.71-6.388 42.823L28.196 148h27.641l2.09-3.382c2.616-4.232 6.823-6.046 12.342-5.32 3.324.437 5.011 1.43 7.867 4.629L81.772 148h77.89l1.27-2.372c1.48-2.765 7.882-6.628 10.986-6.628 3.857 0 8.815 2.739 10.683 5.901l1.83 3.099h28.619l1.152-2.75c3.112-7.422-.455-31.738-6.43-43.839-2.038-4.126-2.455-6.559-2.609-15.223-.272-15.279-3.738-24.421-14.365-37.89-8.192-10.382-21.683-19.938-34.359-24.337-13.536-4.697-32.177-6.615-48.142-4.954m-73.604 5.792c-3.128 3.265-3.223 3.998-1.152 8.954l1.541 3.689 4.021-6.359c4.053-6.411 4.091-7.349.34-8.477-1.464-.44-2.833.192-4.75 2.193m165.611-1.507-2.195 1.22 4.09 6.433 4.089 6.432 1.764-4.438 1.763-4.439-3.104-3.25c-3.492-3.657-3.402-3.629-6.407-1.958m-160.11 8.974c-3.854 6.056-3.927 6.333-2.549 9.683 1.661 4.037 2.478 4.97 3.024 3.456.217-.603 2.405-4.157 4.863-7.898C47.989 33.765 50 30.332 50 29.877c0-.454-1.314-1.505-2.919-2.335l-2.919-1.51-3.968 6.234m153.738-4.569a299.416 299.416 0 0 0-2.736 1.858c-.267.193 9.298 15.272 10.363 16.337.228.228 1.113-1.256 1.967-3.299 1.512-3.62 1.474-3.849-1.494-9.036-4.113-7.19-5.085-7.893-8.1-5.86M49.726 34.15c-1.391 1.842-3.926 5.737-5.633 8.654-2.6 4.442-2.92 5.65-1.968 7.43 1.124 2.099 1.164 2.089 3.234-.804 1.152-1.612 4.326-5.312 7.053-8.222l4.958-5.293-2.558-2.557-2.558-2.558-2.528 3.35m136.969-1.125-2.713 2.134 5.08 5.671c2.794 3.118 5.821 6.907 6.725 8.42 2.008 3.359 2.994 3.471 3.758.428.558-2.224-3.486-10.207-8.35-16.483l-1.786-2.304-2.714 2.134M72.487 75.867c-4.564 2.073-9.196 7.611-11.178 13.362-2.573 7.469 2.013 15.585 9.768 17.288 4.813 1.057 11.775-1.369 15.972-5.566 3.067-3.067 3.807-4.64 4.395-9.348.909-7.28-1.81-13.6-6.889-16.01-4.313-2.046-7.1-1.983-12.068.274m85.013-.922c-2.795 1.144-5.153 3.98-7.014 8.434-4.29 10.268 4.584 22.768 16.265 22.91 2.612.031 6.151-.676 7.864-1.572 3.381-1.768 6.385-6.99 6.385-11.098 0-2.95-2.851-10.619-3.948-10.619-.402 0-1.217-1.068-1.812-2.372-2.101-4.613-12.341-7.893-17.74-5.683m78.635 5.674c-.523 10.089-5.404 19.637-14.205 27.786l-5.931 5.491 1.486 6.302c1.682 7.135 1.997 21.403.557 25.192l-.958 2.521 6.708.294 6.708.295.5 5.816.5 5.817 3.125-3.317c8.354-8.866 14.05-20.539 16.901-34.636 2.946-14.562-.457-28.925-9.689-40.891-2.244-2.909-4.391-5.289-4.772-5.289-.38 0-.799 2.079-.93 4.619M72.5 78.569c-4.407 2.286-5.111 3.266-2.917 4.058 1.054.381 5.855 2.369 10.667 4.42L89 90.774v-2.937c0-3.67-2.41-8.451-4.945-9.807-2.798-1.498-8.106-1.251-11.555.539m83.627.527c-4.033 3.757-5.798 11.638-2.377 10.613 2.852-.855 18.284-7.41 18.905-8.03.314-.314-.943-1.494-2.792-2.621-4.485-2.734-10.779-2.717-13.736.038m-90.494 6.757c-4.062 4.488-2.687 14.034 2.401 16.664 5.445 2.817 13.218 1.212 17.629-3.638 3.388-3.725 3.301-5.818-.307-7.354-3.062-1.304-3.158-1.266-3.709 1.488-.984 4.924-8.05 5.214-9.263.38-.415-1.654-.034-3.123 1.152-4.433.976-1.078 1.534-1.96 1.241-1.96-.293 0-2.108-.658-4.034-1.463-3.191-1.333-3.642-1.306-5.11.316m103.898-.016c-3.108 1.394-3.596 1.924-2.25 2.44 1.106.425 1.719 1.749 1.719 3.713 0 5.872-8.116 6.379-9.567.598-.539-2.146-.85-2.257-3.512-1.252-3.625 1.368-3.769 3.907-.411 7.264 8.977 8.977 22.432 5.921 22.453-5.1.008-4.115-1.695-8.611-3.463-9.143-.55-.166-2.786.5-4.969 1.48M228 87.263c-1.925.504-3.664 1.078-3.864 1.274-.405.398 3.791 7.463 4.432 7.463.727 0 3.508-7.377 3.216-8.531-.198-.785-1.339-.847-3.784-.206m-7.455 13.987c1.133 3.751 1.969 3.899 4.292.757L227.06 99h-3.597c-3.266 0-3.535.208-2.918 2.25m-6.53 6.5c.045 2.213 1.556 3.037 3.271 1.783 1.593-1.165 1.61-1.359.162-1.915-2.161-.829-3.451-.779-3.433.132m-95.161 13.898c-1.711 3.604-10.613 8.19-17.393 8.959-4.118.467-5.789.117-9.838-2.062-5.074-2.73-6.852-2.731-4.588-.003 2.381 2.869 7.331 4.744 12.442 4.714 6.113-.036 15.37-3.4 18.488-6.718l2.294-2.442 3.174 2.421c1.746 1.332 4.759 3.083 6.694 3.892 2.71 1.132 3.784 2.352 4.668 5.3.631 2.106 1.782 4.698 2.558 5.759 1.329 1.817 1.562 1.634 3.977-3.133 1.996-3.938 3.221-5.195 5.508-5.653 3.185-.637 9.054-5.118 8.038-6.138-.343-.344-2.344.39-4.447 1.63-7.489 4.419-21.313 1.43-27.37-5.918l-2.852-3.46-1.353 2.852m17.7 13.602c1.427 4.664 2.02 4.867 3.733 1.274l1.681-3.524h-3.052c-2.701 0-2.972.258-2.362 2.25m-73.666 7.195c-3.489 1.969-5.439 6.657-3.937 9.464 1.251 2.338 3.06 2.68 4.825.915.902-.902 1.64-.757 3.163.621 2.038 1.844 5.061 1.524 5.061-.536 0-.831.419-.806 1.5.091 2.088 1.733 4.5-.384 4.5-3.948 0-5.816-9.304-9.884-15.112-6.607m102.035 2.478c-1.608 1.608-2.923 3.803-2.923 4.878 0 2.658 2.462 4.505 4.952 3.714 1.191-.378 2.048-.203 2.048.418 0 1.615 3.581 1.277 5.035-.475.888-1.07 1.599-1.224 2.323-.5 1.556 1.556 4.345 1.258 5.035-.54 1.166-3.038.589-5.527-1.848-7.963-3.699-3.7-10.677-3.476-14.622.468M120 157c0 .55.45 1 1 1s1-.45 1-1-.45-1-1-1-1 .45-1 1m51 1.059c0 .582.45.781 1 .441s1-.816 1-1.059-.45-.441-1-.441-1 .477-1 1.059m-52.25 7.691-88.75.261V222h182v-57l-2.25.245c-1.238.134-42.187.361-91 .505m67.875 9.767c-.894.894-1.625 2.144-1.625 2.777s-.701.151-1.557-1.071c-1.862-2.66-6.545-2.979-8.915-.608-1.487 1.487-1.757 1.487-3.401 0-2.32-2.099-9.015-2.082-12.033.032-2.182 1.528-2.416 1.528-3.272 0-.579-1.035-2.209-1.647-4.386-1.647-2.82 0-3.825.591-5.394 3.171l-1.929 3.172-1.228-2.696c-1.355-2.974-5.309-4.481-7.79-2.969-.877.534-2.373 2.497-3.324 4.361-1.572 3.082-2.083 3.363-5.648 3.106-2.156-.156-4.194.161-4.53.705-.382.618-1.722.434-3.58-.493-2.021-1.008-3.508-1.18-4.657-.537-.928.52-3.352.722-5.386.449-2.988-.401-3.987-.083-5.207 1.659l-1.509 2.154-3.5-2.064c-2.725-1.608-4.058-1.853-6.023-1.106-1.841.7-3.026.58-4.378-.444-2.377-1.801-10.417-1.873-12.821-.115-1.408 1.03-2.523 1.099-4.663.291-2.376-.896-3.296-.705-5.917 1.233-2.904 2.148-3.222 2.189-4.935.639-1.143-1.035-3.085-1.536-5.173-1.336-4.793.459-7.198 5.668-7.686 16.643-.335 7.563-.161 8.545 1.911 10.75 2.262 2.408 7.255 3.329 8.36 1.542.934-1.511 6.958-1.904 9.066-.592 2.298 1.432 17.477 1.818 20.86.532 1.485-.564 2.846-.381 4.128.556 2.208 1.615 5.113.985 8.117-1.759 1.871-1.709 2.239-1.751 3.372-.385 1.653 1.991 5.895 1.963 8.123-.053 1.609-1.456 1.995-1.407 4.704.596 2.429 1.796 3.866 2.091 8.123 1.669 2.845-.282 5.796-1.03 6.558-1.663 1.063-.882 1.973-.765 3.904.5 2.926 1.917 6.134 1.253 7.652-1.584 1.416-2.644 4.592-2.423 8.146.568 3.192 2.686 4.499 2.987 6.756 1.56.937-.593 2.146-.414 3.472.515 2.918 2.044 8.872 1.778 11.803-.528 1.68-1.321 2.81-1.624 3.497-.937 1.382 1.382 6.916 1.445 8.539.098.84-.697 1.85-.757 2.785-.166 2.463 1.558 6.858 1.066 8.923-.999 1.77-1.77 1.953-3.374 1.922-16.838-.021-9.467-.468-15.759-1.229-17.293-1.485-2.995-6.629-3.79-9.025-1.395" fill="#1976D2" fill-rule="evenodd"/><path fill-opacity=".614" d="M108.415 15.996c-16.331 1.43-33.353 7.384-44.494 15.562l-4.926 3.616-3.074-2.587C54.23 31.164 52.47 30 52.01 30c-1.11 0-6.17 6.94-9.135 12.529C41.571 44.988 40.22 47 39.873 47s-1.196-1.364-1.886-3.032c-.691-1.668-1.482-2.807-1.757-2.531-.276.275 1.079 3.153 3.011 6.395l3.511 5.895-3.937 7.923c-4.873 9.805-7.669 24.109-6.156 31.495.814 3.973.683 5.065-.844 7.029-.994 1.28-3.237 6.601-4.984 11.826-2.802 8.377-3.187 10.859-3.254 21-.042 6.325.284 12.491.726 13.703.769 2.113.531 2.215-5.79 2.5l-6.593.297-.21 36.5-.21 36.5-5.788.301-5.788.301.288 8.699L.5 240.5l120-.345c66-.19 120.358-.682 120.795-1.095.437-.412.662-4.307.5-8.655l-.295-7.905-5.75-.3-5.75-.3v-58.106l6.829-6.762c11.481-11.368 18.547-28.419 18.454-44.532-.065-11.088-2.578-19.155-8.963-28.766C242.382 77.806 236.61 72 234.656 72c-.361 0-.656 2.628-.656 5.841v5.841l-5.75 1.273c-3.162.7-6.083 1.47-6.49 1.712-.407.241.388 2.665 1.767 5.386L226.034 97h-4.017c-4.334 0-4.795.823-3.042 5.435.889 2.336.749 2.565-1.565 2.565-6.747 0-8.907-3.782-8.571-15 .305-10.161-2.243-21.226-6.902-29.966-2.529-4.746-2.908-6.219-2.024-7.871 1.573-2.939 1.334-3.865-.413-1.604-1.457 1.886-1.563 1.856-3.722-1.059-1.222-1.65-4.62-5.54-7.552-8.645l-5.33-5.645 3.087-2.198c3.849-2.741 4.635-2.187 10.197 7.174 2.238 3.768 4.432 7.074 4.876 7.349.895.553 3.967-3.388 3.904-5.008-.022-.565-.766.314-1.653 1.954-1.488 2.75-1.698 2.838-2.71 1.138-.603-1.014-3.092-5.007-5.53-8.874l-4.433-7.03 2.294-1.858c1.261-1.021 2.886-1.857 3.61-1.857C198.144 26 205 37.032 205 39.616c0 1.143.815.334 2.126-2.112 2.626-4.899 5.102-11.763 3.997-11.08-.449.278-2.096-.83-3.659-2.461-2.775-2.897-2.796-3.002-.903-4.491 2.862-2.249-6.454 2.533-10.697 5.492-2 1.395-5.883 4.183-8.629 6.197l-4.992 3.661-4.871-3.496c-17.856-12.813-40.421-17.83-68.957-15.33m-82.413.754c.002.413 1.389.8 3.084.861 2.033.073 2.628-.177 1.748-.735-1.66-1.052-4.835-1.135-4.832-.126M210 17.081c-1.157.81-.956.896.875.377 1.534-.434 2.679-.192 3.235.685.669 1.057.863.97.875-.393.017-1.954-2.64-2.311-4.985-.669m-106.415 2.026c-22.043 3.215-41.508 13.917-53.673 29.512-10.34 13.255-13.736 22.318-14.306 38.183-.308 8.573-.839 11.734-2.525 15.04-6.082 11.92-9.502 36.106-6.21 43.908l1.372 3.25h27.422l2.417-3.715c1.489-2.288 3.86-4.262 6.168-5.136 3.344-1.267 4.247-1.231 8.335.33 2.839 1.084 5.263 2.867 6.366 4.681l1.782 2.93 39.384-.057 39.383-.057 1.854-2.516c2.577-3.498 6.799-5.46 11.751-5.46 3.605 0 4.748.571 8.01 4l3.805 4h29.003l1.158-4.25c2.386-8.758-1.233-31.267-6.793-42.25-1.557-3.075-2.141-6.66-2.526-15.5-.421-9.658-.981-12.732-3.502-19.191-9.343-23.949-33.156-42.467-60.808-47.289-9.338-1.629-28.129-1.834-37.867-.413m-67.873 1.046c.966 1.164.619 1.985-1.8 4.268-3.291 3.106-3.383 3.098-4.802-.458-.554-1.387-1.011-1.782-1.047-.904-.034.857.581 2.432 1.367 3.5 1.384 1.879 1.544 1.831 4.975-1.481 3.177-3.066 3.807-3.302 6.07-2.271 1.389.632 2.525 1.57 2.525 2.084s-1.575 3.326-3.5 6.249c-1.925 2.923-3.5 5.689-3.5 6.146 0 .458-.445.557-.989.221-.568-.351-.733.053-.389.949.425 1.109 1.596-.105 4.049-4.198 5.048-8.425 5.672-8.919 8.734-6.912 1.388.91 2.878 1.646 3.31 1.637.432-.009-.79-1.004-2.715-2.211-1.925-1.207-3.725-2.489-4-2.849-.275-.36-2.521-1.679-4.992-2.932-2.685-1.362-4.01-1.699-3.296-.838m177.367.515c-.043.643-.338 1.993-.655 3-.547 1.741-.518 1.744.571.044.631-.983.925-2.333.655-3-.355-.875-.514-.887-.571-.044m-13.481 2.637c-1.672 1.222-1.541 1.694 2.059 7.455 2.113 3.382 4.143 6.17 4.51 6.195.367.025 1.448-1.997 2.401-4.493l1.733-4.538-2.838-2.962c-3.099-3.235-5.124-3.662-7.865-1.657M31.086 30c-.031.825.381 2.175.914 3 1.181 1.828 1.181.249 0-2.5-.567-1.319-.878-1.489-.914-.5m16.708 6.256c-6.082 9.159-7.127 11.718-5.894 14.424 1.079 2.368 1.163 2.318 5.692-3.388 2.529-3.186 6.017-7.056 7.753-8.601l3.155-2.808-2.806-2.442C54.151 32.099 52.527 31 52.086 31c-.442 0-2.373 2.365-4.292 5.256m110.223 39.09c-2.497.827-4.152 2.368-5.844 5.439-2.051 3.721-2.27 5.073-1.666 10.274.564 4.861 1.283 6.577 3.814 9.108 7.809 7.809 20.09 7.741 24.162-.134 2.631-5.088 1.963-11.167-1.831-16.674-5.132-7.449-11.749-10.294-18.635-8.013M70.984 77.25C65.854 80.735 61 88.47 61 93.159 61 101.118 65.939 106 73.99 106c8.255 0 15.457-5.718 16.895-13.413 1.134-6.073-.177-11.033-3.902-14.758-3.721-3.721-10.987-3.984-15.999-.579m164.701 3.486c-1.225 11.724-8.218 24.279-16.618 29.838l-3.846 2.545 1.532 5.691c1.648 6.123 2.234 21.949.978 26.44l-.769 2.75H230v13.432l5.449-5.381c12.802-12.644 20.222-36.885 16.61-54.27-1.574-7.578-6.2-16.639-11.463-22.451l-4.271-4.718-.64 6.124M74.282 77.289c-3.153 1.187-7.093 4.346-6.222 4.989.909.672 20.471 8.725 21.19 8.724 1.249-.003.841-4.926-.648-7.804-3.088-5.972-8.366-8.15-14.32-5.909m83.814-.024c-4.472 2.298-8.175 9.62-6.307 12.469.606.924 3.308.172 10.773-3 5.479-2.329 10.146-4.684 10.369-5.234.5-1.233-7.595-5.505-10.393-5.485-1.121.008-3.12.57-4.442 1.25M64.95 85.561c-.713.858-1.497 3.988-1.743 6.956-.412 4.963-.203 5.641 2.596 8.44 2.523 2.523 3.842 3.043 7.719 3.043 5.483 0 10.736-2.241 13.505-5.762 2.864-3.641 2.499-5.859-1.176-7.14C81.896 89.719 82 89.708 82 91.5c0 1.687-3.466 5.5-5 5.5-.55 0-1.9-.9-3-2-2.491-2.491-2.504-3.496-.078-5.922 1.897-1.897 1.87-1.944-2.02-3.5-4.882-1.954-5.344-1.955-6.952-.017m104.156-.01c-3.197 1.388-3.299 1.579-1.75 3.29C170.305 92.1 168.749 96 164.5 96c-2.615 0-4.5-1.805-4.5-4.308 0-1.582-.47-1.791-2.744-1.22-5.581 1.401-6.074 3.632-1.857 8.407 4.912 5.561 14.437 6.813 19.49 2.561 3.911-3.291 4.776-7.737 2.576-13.237-1.843-4.606-3.007-4.975-8.359-2.652m58.394 1.124c-4.57 1.011-4.657 1.124-3.111 4.057.802 1.522 2.139 3.668 2.97 4.768 1.465 1.94 1.554 1.895 2.956-1.5 2.831-6.856 2.978-8.01 1.002-7.884-.999.064-2.717.315-3.817.559m-7.773 12.016c-.255.445.049 2.292.675 4.104l1.138 3.294 2.907-3.034c1.599-1.669 2.715-3.211 2.48-3.428-1.002-.924-6.777-1.674-7.2-.936m-6.401 8.717c.371.966.674 2.169.674 2.674 0 1.616 2.631.984 4.5-1.082 1.755-1.939 1.747-2-.263-2-1.14 0-2.863-.303-3.829-.674-1.377-.528-1.61-.295-1.082 1.082m-95.629 16.112c-5.829 7.02-20.18 9.677-27.057 5.01-2.57-1.744-3.64-2.064-3.64-1.089 0 .759 2.064 2.38 4.586 3.601 3.639 1.761 5.681 2.107 9.884 1.673 6.014-.62 16.065-4.998 17.779-7.743 1.079-1.727 1.332-1.669 4.382 1.009 1.78 1.563 4.777 3.399 6.659 4.079 2.785 1.007 3.747 2.141 5.168 6.093.96 2.67 2.144 5.101 2.632 5.402.487.302 1.872-1.482 3.078-3.963 1.549-3.189 2.957-4.68 4.802-5.085 3.42-.751 9.03-4.19 9.03-5.534 0-.582-2.044.141-4.543 1.605-3.801 2.228-5.417 2.59-9.893 2.219-6.462-.536-16.654-5.361-18.051-8.547-1.251-2.851-1.434-2.802-4.816 1.27M135 132.298c0 .967 3.05 7.702 3.488 7.702.61 0 3.753-6.102 3.336-6.476-.629-.564-6.824-1.676-6.824-1.226m-74.077 11.625c-4.785 4.785-3.152 11.104 2.503 9.685 1.348-.338 2.731-.164 3.072.388.756 1.224 5.502 1.347 5.502.143 0-.474 1.085-.654 2.411-.401 1.749.335 2.734-.141 3.586-1.731 2.737-5.116-2.78-10.996-10.324-11.003-2.899-.003-4.535.704-6.75 2.919m105.852-1.364c-3.2 1.736-4.775 4.323-4.775 7.84 0 2.781 3.379 5.415 4.539 3.539.434-.703 1.301-.487 2.535.629 1.698 1.537 2.094 1.553 4.208.168 1.733-1.136 2.814-1.261 4.198-.486 1.491.834 2.236.585 3.716-1.242 2.304-2.846 1.625-5.592-2.29-9.257-3.339-3.125-7.765-3.56-12.131-1.191M60 155.882c0 .55.45 1.278 1 1.618.55.34 1 .168 1-.382s-.45-1.278-1-1.618c-.55-.34-1-.168-1 .382M76 156c0 .55.477 1 1.059 1s.781-.45.441-1-.816-1-1.059-1-.441.45-.441 1m-9 .972c0 1.356 1.777 2.198 2.425 1.149.31-.501-.109-1.169-.931-1.485-.822-.315-1.494-.164-1.494.336m53 .028c0 .55.45 1 1 1s1-.45 1-1-.45-1-1-1-1 .45-1 1m43 .059c0 .582.45.781 1 .441s1-.816 1-1.059-.45-.441-1-.441-1 .477-1 1.059m16 0c0 .582.45.781 1 .441s1-.816 1-1.059-.45-.441-1-.441-1 .477-1 1.059m-8 .941c0 .55.45 1 1 1s1-.45 1-1-.45-1-1-1-1 .45-1 1m-141.548 8.264c-.267.695-.365 13.633-.219 28.75L29.5 222.5l91.5-.351c50.325-.193 91.538-.418 91.584-.5.047-.082-.121-12.862-.372-28.399l-.456-28.25h-90.909c-72.35 0-91.009.258-91.395 1.264m156.931 10.274-1.663 2.538-1.899-2.038c-2.355-2.528-4.915-2.592-7.871-.199-2.205 1.786-2.325 1.786-4.111 0-2.424-2.424-7.909-2.359-11.075.132-2.496 1.964-2.513 1.964-4.333-.047-2.643-2.921-6.398-2.121-9.129 1.944l-2.262 3.368-1-2.63c-2.443-6.426-10.284-5.151-11.605 1.886-.653 3.485-1.751 4.423-2.935 2.508-.925-1.497-5.152-1.205-6.829.472-1.285 1.285-1.625 1.288-2.676.022-.877-1.056-3.007-1.377-7.854-1.182-7.166.288-9.141.99-9.141 3.247 0 2.014-1.37 1.795-3.5-.559-1.926-2.128-6.942-2.711-8.04-.935-.437.707-1.236.543-2.375-.488-2.587-2.341-7.451-2.948-11.745-1.467-2.112.729-5.702 1.191-7.977 1.027-3.315-.239-4.439.134-5.658 1.874l-1.522 2.172-2.091-2.091c-2.607-2.607-6.244-2.687-8.506-.187-3.998 4.418-5.969 18.802-3.3 24.078 1.776 3.51 6.101 4.882 8.512 2.699 2.404-2.175 7.229-2.145 11.102.068 2.34 1.337 3.473 1.492 4.806.657 1.14-.715 3.074-.794 5.587-.23 2.42.544 5.345.459 7.902-.23 2.89-.778 4.368-.784 5.132-.02 1.855 1.855 5.677 1.172 8.105-1.449 1.872-2.019 2.452-2.224 2.91-1.029.906 2.362 5.335 2.992 8.135 1.158 2.3-1.507 2.68-1.481 5.743.399 3.797 2.331 10.974 1.895 14.112-.858 1.687-1.479 1.909-1.47 2.8.123 1.318 2.355 6.39 2.249 8.085-.17 1.996-2.85 5.929-2.955 8.655-.229 1.806 1.806 3.132 2.23 5.949 1.901 1.993-.233 4.762.17 6.152.896 4.17 2.176 8.92 1.183 11.58-2.423.903-1.224 1.239-1.201 2.372.164 1.462 1.761 6.129 2.136 7.65.615.634-.634 2.261-.581 4.645.151 3.02.926 4.1.844 6.097-.464 3.208-2.102 3.501-4.198 2.904-20.793-.542-15.061-1.175-16.919-5.769-16.919-1.472 0-3.051.985-4.069 2.538m1.664 4.212c-.568 2.063-1.168 5.1-1.332 6.75-.281 2.82-.458 2.655-2.957-2.762-2.828-6.128-4.859-7.729-7.271-5.727-2.255 1.871-2.17 29.177.097 31.059 1.153.957 2.036 1.027 3.25.257 1.332-.846 1.62-2.437 1.436-7.942l-.23-6.885 2.003 4.5c3.579 8.045 4.499 9.481 6.289 9.826 4.037.777 4.668-1.369 4.668-15.867 0-15.149-.327-16.959-3.067-16.959-1.291 0-2.166 1.138-2.886 3.75m-53.139-1.141c-1.017 1.224-1.503 5.49-1.749 15.345-.288 11.498-.093 13.856 1.237 14.96 2.914 2.418 4.598.572 4.683-5.133.07-4.681.191-4.974 1.068-2.577 1.364 3.729 4.734 4.661 6.951 1.923 2.371-2.928 2.902-2.684 2.902 1.338 0 3.742 2.526 6.064 4.961 4.559 1.086-.671 1.217-3.537.664-14.555C154.897 180.954 154.115 178 151 178c-2.32 0-3.336 1.796-4.981 8.804-.684 2.917-1.487 5.061-1.783 4.765-.297-.296-1.483-3.358-2.638-6.804-2.206-6.587-4.215-8.135-6.69-5.156m25.933.092c-3.695 4.267-5.105 17.207-2.786 25.558 2.027 7.299 9.162 8.721 12.902 2.572 3.93-6.463 3.759-19.979-.331-26.07-2.624-3.908-7.328-4.898-9.785-2.06m-47.806 7.233c-1.275 2.382-1.307 11.186-.06 16.566 1.236 5.335 4.015 7.465 9.338 7.155 6.559-.381 6.689-.614 6.672-11.964-.017-10.906-.645-13.096-3.597-12.527-2.069.398-3.073 3.712-3.285 10.836-.132 4.446-1.454 7.982-2.569 6.868-.316-.316-.858-4.353-1.206-8.971-.57-7.571-1.381-9.835-3.543-9.882-.393-.008-1.18.855-1.75 1.919m-38.41.602c-.344.895-.625 6.285-.625 11.978 0 11.815.273 12.168 8.455 10.941 7.839-1.176 9.129-6.455 1.576-6.455-3.633 0-4.031-.247-4.031-2.5 0-2.087.475-2.5 2.878-2.5 3.261 0 5.631-2.232 4.765-4.487-.366-.955-1.882-1.513-4.112-1.513-4.434 0-4.661-1.764-.281-2.187 2.479-.239 3.25-.788 3.25-2.313 0-1.728-.765-2.04-5.625-2.296-4.457-.235-5.755.042-6.25 1.332m30.566-.266c-.579.698-1.197 3.285-1.372 5.75l-.319 4.48-3.881-5.302c-2.879-3.933-4.428-5.225-5.998-5-1.76.251-2.25 1.268-2.915 6.052-1.129 8.118.241 17.116 2.679 17.586 2.469.475 3.571-1.441 3.644-6.336l.061-4 4.467 4.987c3.737 4.171 4.753 4.808 6.206 3.894 1.404-.883 1.792-2.845 2.024-10.233.347-11.029-1.449-15.671-4.596-11.878m-53.042.603c-1.963 1.264-3.73 17.556-2.256 20.792 1.637 3.592 4.478 2.665 5.134-1.676.512-3.39.563-3.425 1.785-1.239 1.449 2.591 5.931 3.083 6.826.75.812-2.115 2.362-1.867 2.362.378 0 2.363 2.515 4.522 4.418 3.792 1.155-.443 1.393-2.67 1.194-11.131-.139-5.86-.729-11.056-1.325-11.652-2.077-2.077-4.793-.374-7.223 4.529-2.328 4.699-2.476 4.809-3.334 2.5-2.688-7.239-4.567-8.985-7.581-7.043m111.236.565c-.797 2.077-.027 14.254.964 15.245 1.589 1.588 2.656-2.444 2.408-9.103-.165-4.451-.703-7.067-1.506-7.333-.688-.227-1.527.309-1.866 1.191" fill="#1976D2" fill-rule="evenodd"/></svg>